<svg width="218" height="37" viewBox="0 0 218 37" fill="none" xmlns="http://www.w3.org/2000/svg">
<path d="M32.706 27.4399C31.9316 27.9679 31.1088 28.3999 30.286 28.8799C25.8816 31.4239 21.4772 33.9199 17.0728 36.4639C16.9276 36.5599 16.7824 36.6079 16.6372 36.4639C11.41 33.4879 6.23117 30.5119 1.00397 27.5359C0.955567 27.5359 0.955566 27.4879 0.955566 27.4399C1.00397 27.2959 1.14917 27.2479 1.24597 27.1999C2.98837 26.1919 4.73077 25.2319 6.42477 24.2239C6.52157 24.1759 6.61837 24.1279 6.71517 24.1279C7.15077 24.2719 7.53797 24.5119 7.92517 24.7519C10.684 26.3359 13.4912 27.9199 16.25 29.5519C16.6856 29.7919 16.976 29.7919 17.4116 29.5519C20.4124 27.7759 23.4616 26.0959 26.4624 24.3679C26.6076 24.2719 26.7044 24.1759 26.8496 24.1279C27.382 24.3199 27.8176 24.6079 28.3016 24.8959C29.6084 25.6159 30.9152 26.3839 32.222 27.1039C32.3672 27.1519 32.6092 27.2479 32.706 27.4399Z" fill="url(#paint0_linear_423_2)"/>
<path d="M0.907227 9.24806C2.35923 8.43206 3.76283 7.56806 5.21483 6.75206C8.99003 4.59206 12.7168 2.43206 16.492 0.272063C16.6856 0.128062 16.8792 0.128062 17.1212 0.272063C22.3 3.24806 27.4304 6.17606 32.6092 9.15206C32.6576 9.15206 32.6576 9.20006 32.706 9.24806C32.706 9.39206 32.6092 9.44006 32.5124 9.48806C30.7216 10.4961 28.9792 11.5521 27.1884 12.5601C27.14 12.6081 27.0432 12.6561 26.9464 12.6561C25.8332 12.0801 24.72 11.4081 23.6068 10.7841C21.4288 9.53606 19.2508 8.28806 17.0728 7.04006C16.8792 6.94406 16.6856 6.94406 16.492 7.04006C13.346 8.86406 10.2 10.6401 7.05403 12.4641C6.90883 12.5121 6.81203 12.6081 6.66683 12.6561C6.37643 12.6561 6.18283 12.4641 5.94083 12.3201C4.39203 11.4081 2.84323 10.5441 1.29443 9.63206C1.14923 9.48806 0.955627 9.44006 0.907227 9.24806Z" fill="url(#paint1_linear_423_2)"/>
<path d="M26.9466 12.56C28.8826 11.456 30.7702 10.352 32.7062 9.24805C32.7546 9.34405 32.7546 9.48805 32.7546 9.58405C32.7546 11.696 32.7546 13.808 32.7546 15.92C32.7546 16.16 32.6578 16.304 32.4642 16.4C31.3026 17.072 30.141 17.744 28.931 18.416C30.141 19.088 31.2542 19.76 32.4158 20.384C32.6578 20.528 32.7546 20.624 32.7546 20.912C32.7546 22.976 32.7546 24.992 32.7546 27.056C32.7546 27.152 32.7546 27.296 32.7546 27.392C30.8186 26.288 28.8342 25.184 26.8982 24.08C26.753 24.128 26.6078 24.032 26.511 23.936C24.8654 23.024 23.2198 22.064 21.5742 21.104C20.7514 20.624 19.8802 20.144 19.0574 19.664C18.767 19.52 16.7826 18.56 16.8794 18.32C16.9278 18.176 17.073 18.128 17.1698 18.032C18.1862 17.456 19.2026 16.832 20.219 16.256C21.3322 15.632 22.397 14.96 23.5102 14.336C24.5266 13.76 25.543 13.136 26.6078 12.56C26.7046 12.608 26.8014 12.56 26.9466 12.56Z" fill="url(#paint2_linear_423_2)"/>
<path d="M0.907286 9.24805C2.84329 10.352 4.73089 11.456 6.66689 12.56C6.81209 12.704 6.81209 12.848 6.81209 13.04C6.81209 16.592 6.81209 20.192 6.81209 23.744C6.81209 23.888 6.81209 24.08 6.66689 24.224C5.74729 24.656 4.87609 25.232 3.95649 25.76C2.94009 26.336 1.87529 26.912 0.858887 27.536C0.858887 27.44 0.858887 27.296 0.858887 27.2C0.858887 21.344 0.858887 15.536 0.858887 9.68005C0.858887 9.48805 0.907286 9.34405 0.907286 9.24805Z" fill="url(#paint3_linear_423_2)"/>
<path d="M13.2974 16.352C14.4106 15.728 15.4754 15.104 16.5886 14.48C16.6854 14.432 16.7822 14.384 16.9274 14.432C17.9922 15.056 19.1054 15.68 20.2186 16.304C20.267 16.304 20.267 16.352 20.267 16.4C19.2022 17.024 18.089 17.648 17.0242 18.272C16.9758 18.32 16.9274 18.368 16.8306 18.416C16.7338 18.512 16.637 18.464 16.5402 18.416C15.4754 17.792 14.459 17.168 13.3942 16.496C13.3458 16.448 13.3458 16.448 13.2974 16.4C13.2974 16.4 13.2974 16.4 13.2974 16.352Z" fill="url(#paint4_linear_423_2)"/>
<path d="M20.2186 20.3841C20.1702 20.4801 19.9766 20.528 19.8798 20.576C19.6862 20.672 19.541 20.7681 19.3958 20.8641C19.057 21.0561 18.7666 21.248 18.4278 21.4401C17.9438 21.68 17.4598 21.968 17.0242 22.256C16.879 22.352 16.7338 22.352 16.5886 22.256C15.5722 21.68 14.5074 21.056 13.491 20.4801C13.3942 20.432 13.2974 20.3361 13.2974 20.1921C13.2974 18.9441 13.2974 17.696 13.2974 16.448C13.2974 16.4 13.3458 16.4001 13.3458 16.3521V16.4001C13.491 16.5441 13.4426 16.6881 13.4426 16.8801C13.4426 17.84 13.4426 18.8001 13.4426 19.7601C13.4426 20.144 13.491 20.1441 13.8298 19.9521C14.6042 19.5201 15.3786 19.088 16.153 18.656C16.395 18.512 16.5886 18.3681 16.879 18.5121C17.1694 18.6561 17.5082 18.8481 17.7986 18.9921C18.4278 19.3281 19.057 19.664 19.6862 20.0001C19.8314 20.0961 19.9766 20.144 20.1218 20.2401C20.1702 20.2401 20.2186 20.288 20.2186 20.336C20.267 20.336 20.267 20.3841 20.2186 20.3841Z" fill="url(#paint5_linear_423_2)"/>
<path d="M16.8306 18.4639C16.6854 18.4159 16.5402 18.5119 16.4434 18.6079C15.5238 19.0879 14.6042 19.6159 13.6846 20.0959C13.2974 20.2879 13.2974 20.2879 13.2974 19.9039C13.2974 18.7519 13.2974 17.5519 13.2974 16.3999C14.2654 16.9279 15.185 17.5519 16.153 18.0799C16.3466 18.1759 16.5402 18.4159 16.8306 18.4159V18.4639Z" fill="url(#paint6_linear_423_2)"/>
<path d="M53.2758 13.4237C52.453 12.1277 51.4366 11.5037 49.4522 11.5037C47.7098 11.5037 46.7418 12.3197 46.7418 13.6157C46.7418 15.1037 47.9518 15.7757 50.5654 16.3997C54.5826 17.4077 56.4218 18.8957 56.4218 22.2557C56.4218 25.3757 54.2922 27.8237 49.791 27.8237C46.403 27.8237 44.0798 26.9117 42.3374 24.7037L45.3382 22.6397C46.3546 23.9357 47.5646 24.5597 49.549 24.5597C51.7754 24.5597 52.5498 23.5997 52.5498 22.4477C52.5498 21.1037 51.727 20.3837 48.6294 19.5677C44.8058 18.5597 42.9182 16.7837 42.9182 13.6157C42.9182 10.5917 44.951 8.23975 49.5006 8.23975C52.5982 8.23975 54.873 9.24775 56.2766 11.3597L53.2758 13.4237Z" fill="#3E3A3A"/>
<path d="M63.5366 16.064H70.2158V8.47998H74.1362V27.584H70.2158V19.328H63.5366V27.584H59.6162V8.47998H63.5366V16.064Z" fill="#3E3A3A"/>
<path d="M82.4126 27.584H78.4922V8.47998H82.4126V27.584Z" fill="#3E3A3A"/>
<path d="M101.289 8.47998V27.584H97.9974L90.4954 15.728V27.584H86.7686V8.47998H90.0114L97.5618 20.48V8.47998H101.289Z" fill="#3E3A3A"/>
<path d="M105.354 27.584V8.47998H112.178C116.534 8.47998 119.584 10.688 119.584 16.784V19.28C119.584 25.328 116.534 27.584 112.178 27.584H105.354ZM115.712 19.28V16.784C115.712 13.472 114.84 11.744 112.227 11.744H109.274V24.32H112.227C114.84 24.32 115.712 22.592 115.712 19.28Z" fill="#3E3A3A"/>
<path d="M120.552 27.584L127.231 8.47998H130.958L137.685 27.584H133.523L132.361 23.936H125.924L124.763 27.584H120.552ZM126.941 20.672H131.297L129.119 13.952L126.941 20.672Z" fill="#3E3A3A"/>
<path d="M143.978 27.584H140.057V8.47998H143.978V27.584Z" fill="#3E3A3A"/>
<path d="M162.079 8.47998C166.628 8.47998 169.145 10.064 169.145 13.52C169.145 15.488 168.129 16.832 166.58 17.6C168.564 18.32 169.726 19.76 169.726 22.16C169.726 25.136 167.79 27.632 162.66 27.632H155.593V8.47998H162.079ZM159.514 16.016H162.127C164.257 16.016 165.225 15.2 165.225 13.808C165.225 12.464 164.547 11.696 161.74 11.696H159.562V16.016H159.514ZM159.514 24.32H162.321C164.692 24.32 165.806 23.456 165.806 21.776C165.806 19.952 164.596 19.28 161.982 19.28H159.514V24.32Z" fill="#3E3A3A"/>
<path d="M179.6 27.8239C175.244 27.8239 172.243 25.2319 172.243 19.3759V16.6399C172.243 10.7359 175.292 8.19189 179.6 8.19189C183.956 8.19189 187.005 10.7359 187.005 16.6399V19.3759C187.005 25.2319 183.956 27.8239 179.6 27.8239ZM176.164 19.3759C176.164 23.0239 177.374 24.5599 179.648 24.5599C181.923 24.5599 183.133 23.0239 183.133 19.3759V16.6399C183.133 12.9919 181.923 11.4559 179.648 11.4559C177.374 11.4559 176.164 12.9919 176.164 16.6399V19.3759Z" fill="#3E3A3A"/>
<path d="M188.457 27.5841L193.878 17.6961L189.038 8.43213H193.297L196.395 14.5281L199.492 8.43213H203.703L198.863 17.6961L204.284 27.5841H200.073L196.395 21.0561L192.716 27.5841H188.457Z" fill="#3E3A3A"/>
<path d="M210.334 27.584H206.51V23.84H210.334V27.584ZM210.189 8.47998H206.655V22.352H210.189V8.47998Z" fill="#3E3A3A"/>
<path d="M217.594 27.584H213.77V23.84H217.594V27.584ZM217.448 8.47998H213.915V22.352H217.448V8.47998Z" fill="#3E3A3A"/>
<defs>
<linearGradient id="paint0_linear_423_2" x1="-7.49328" y1="30.305" x2="31.8431" y2="30.305" gradientUnits="userSpaceOnUse">
<stop stop-color="#2AF598"/>
<stop offset="0.9987" stop-color="#08AEEA"/>
</linearGradient>
<linearGradient id="paint1_linear_423_2" x1="-7.49322" y1="6.4008" x2="31.8432" y2="6.4008" gradientUnits="userSpaceOnUse">
<stop stop-color="#2AF598"/>
<stop offset="0.9987" stop-color="#08AEEA"/>
</linearGradient>
<linearGradient id="paint2_linear_423_2" x1="-7.49304" y1="18.3393" x2="31.8434" y2="18.3393" gradientUnits="userSpaceOnUse">
<stop stop-color="#2AF598"/>
<stop offset="0.9987" stop-color="#08AEEA"/>
</linearGradient>
<linearGradient id="paint3_linear_423_2" x1="-7.49316" y1="18.3423" x2="31.8433" y2="18.3423" gradientUnits="userSpaceOnUse">
<stop stop-color="#2AF598"/>
<stop offset="0.9987" stop-color="#08AEEA"/>
</linearGradient>
<linearGradient id="paint4_linear_423_2" x1="-7.49349" y1="16.4569" x2="31.8429" y2="16.4569" gradientUnits="userSpaceOnUse">
<stop stop-color="#2AF598"/>
<stop offset="0.9987" stop-color="#08AEEA"/>
</linearGradient>
<linearGradient id="paint5_linear_423_2" x1="-7.49348" y1="19.3203" x2="31.8429" y2="19.3203" gradientUnits="userSpaceOnUse">
<stop stop-color="#2AF598"/>
<stop offset="0.9987" stop-color="#08AEEA"/>
</linearGradient>
<linearGradient id="paint6_linear_423_2" x1="-7.49348" y1="18.3167" x2="31.8429" y2="18.3167" gradientUnits="userSpaceOnUse">
<stop stop-color="#2AF598"/>
<stop offset="0.9987" stop-color="#08AEEA"/>
</linearGradient>
</defs>
</svg>
