<svg width="189" height="37" viewBox="0 0 189 37" fill="none" xmlns="http://www.w3.org/2000/svg">
<path d="M31.8471 27.2758C31.0727 27.8038 30.2499 28.2358 29.4271 28.7158C25.0227 31.2598 20.6183 33.7558 16.2139 36.2998C16.0687 36.3958 15.9235 36.4438 15.7783 36.2998C10.5511 33.3238 5.37228 30.3478 0.145084 27.3718C0.0966807 27.3718 0.0966797 27.3238 0.0966797 27.2758C0.145084 27.1318 0.290284 27.0838 0.387084 27.0358C2.12948 26.0278 3.87188 25.0678 5.56588 24.0598C5.66268 24.0118 5.75948 23.9638 5.85628 23.9638C6.29188 24.1078 6.67908 24.3478 7.06628 24.5878C9.82511 26.1718 12.6323 27.7558 15.3911 29.3878C15.8267 29.6278 16.1171 29.6278 16.5527 29.3878C19.5535 27.6118 22.6027 25.9318 25.6035 24.2038C25.7487 24.1078 25.8455 24.0118 25.9907 23.9638C26.5231 24.1558 26.9587 24.4438 27.4427 24.7318C28.7495 25.4518 30.0563 26.2198 31.3631 26.9398C31.5083 26.9878 31.7503 27.0838 31.8471 27.2758Z" fill="url(#paint0_linear_451_27)"/>
<path d="M0.0483398 9.084C1.50034 8.268 2.90394 7.404 4.35594 6.588C8.13114 4.428 11.8579 2.268 15.6331 0.108001C15.8267 -0.0360003 16.0203 -0.0360003 16.2623 0.108001C21.4411 3.084 26.5715 6.012 31.7503 8.988C31.7987 8.988 31.7987 9.036 31.8471 9.084C31.8471 9.228 31.7503 9.276 31.6535 9.324C29.8627 10.332 28.1203 11.388 26.3295 12.396C26.2811 12.444 26.1843 12.492 26.0875 12.492C24.9743 11.916 23.8611 11.244 22.7479 10.62C20.5699 9.372 18.3919 8.124 16.2139 6.876C16.0203 6.78 15.8267 6.78 15.6331 6.876C12.4871 8.7 9.34111 10.476 6.19514 12.3C6.04994 12.348 5.95314 12.444 5.80794 12.492C5.51754 12.492 5.32394 12.3 5.08194 12.156C3.53314 11.244 1.98434 10.38 0.435543 9.468C0.290343 9.324 0.0967398 9.276 0.0483398 9.084Z" fill="url(#paint1_linear_451_27)"/>
<path d="M26.0877 12.3959C28.0237 11.2919 29.9113 10.1879 31.8473 9.08399C31.8957 9.17999 31.8957 9.32399 31.8957 9.41999C31.8957 11.5319 31.8957 13.6439 31.8957 15.7559C31.8957 15.9959 31.7989 16.1399 31.6053 16.2359C30.4437 16.9079 29.2821 17.5799 28.0721 18.2519C29.2821 18.9239 30.3953 19.5959 31.5569 20.2199C31.7989 20.3639 31.8957 20.4599 31.8957 20.7479C31.8957 22.8119 31.8957 24.8279 31.8957 26.8919C31.8957 26.9879 31.8957 27.1319 31.8957 27.2279C29.9597 26.1239 27.9753 25.0199 26.0393 23.9159C25.8941 23.9639 25.7489 23.8679 25.6521 23.7719C24.0065 22.8599 22.3609 21.8999 20.7153 20.9399C19.8925 20.4599 19.0213 19.9799 18.1985 19.4999C17.9081 19.3559 15.9237 18.3959 16.0205 18.1559C16.0689 18.0119 16.2141 17.9639 16.3109 17.8679C17.3273 17.2919 18.3437 16.6679 19.3601 16.0919C20.4733 15.4679 21.5381 14.7959 22.6513 14.1719C23.6677 13.5959 24.6841 12.9719 25.7489 12.3959C25.8457 12.4439 25.9425 12.3959 26.0877 12.3959Z" fill="url(#paint2_linear_451_27)"/>
<path d="M0.048399 9.08399C1.9844 10.1879 3.872 11.2919 5.808 12.3959C5.9532 12.5399 5.9532 12.6839 5.9532 12.8759C5.9532 16.4279 5.9532 20.0279 5.9532 23.5799C5.9532 23.7239 5.9532 23.9159 5.808 24.0599C4.8884 24.4919 4.0172 25.0679 3.0976 25.5959C2.0812 26.1719 1.0164 26.7479 0 27.3719C0 27.2759 0 27.1319 0 27.0359C0 21.1799 0 15.3719 0 9.51599C0 9.32399 0.048399 9.17999 0.048399 9.08399Z" fill="url(#paint3_linear_451_27)"/>
<path d="M12.4385 16.1879C13.5517 15.5639 14.6165 14.9399 15.7297 14.3159C15.8265 14.2679 15.9233 14.2199 16.0685 14.2679C17.1333 14.8919 18.2465 15.5159 19.3597 16.1399C19.4081 16.1399 19.4081 16.1879 19.4081 16.2359C18.3433 16.8599 17.2301 17.4839 16.1653 18.1079C16.1169 18.1559 16.0685 18.2039 15.9717 18.2519C15.8749 18.3479 15.7781 18.2999 15.6813 18.2519C14.6165 17.6279 13.6001 17.0039 12.5353 16.3319C12.4869 16.2839 12.4869 16.2839 12.4385 16.2359C12.4385 16.2359 12.4385 16.2359 12.4385 16.1879Z" fill="url(#paint4_linear_451_27)"/>
<path d="M19.3597 20.22C19.3113 20.316 19.1177 20.3639 19.0209 20.4119C18.8273 20.5079 18.6821 20.604 18.5369 20.7C18.1981 20.892 17.9077 21.0839 17.5689 21.276C17.0849 21.5159 16.6009 21.8039 16.1653 22.0919C16.0201 22.1879 15.8749 22.1879 15.7297 22.0919C14.7133 21.5159 13.6485 20.8919 12.6321 20.316C12.5353 20.2679 12.4385 20.172 12.4385 20.028C12.4385 18.78 12.4385 17.5319 12.4385 16.2839C12.4385 16.2359 12.4869 16.236 12.4869 16.188V16.236C12.6321 16.38 12.5837 16.524 12.5837 16.716C12.5837 17.6759 12.5837 18.636 12.5837 19.596C12.5837 19.9799 12.6321 19.98 12.9709 19.788C13.7453 19.356 14.5197 18.9239 15.2941 18.4919C15.5361 18.3479 15.7297 18.204 16.0201 18.348C16.3105 18.492 16.6493 18.684 16.9397 18.828C17.5689 19.164 18.1981 19.4999 18.8273 19.836C18.9725 19.932 19.1177 19.9799 19.2629 20.076C19.3113 20.076 19.3597 20.1239 19.3597 20.1719C19.4081 20.1719 19.4081 20.22 19.3597 20.22Z" fill="url(#paint5_linear_451_27)"/>
<path d="M15.9717 18.2998C15.8265 18.2518 15.6813 18.3478 15.5845 18.4438C14.6649 18.9238 13.7453 19.4518 12.8257 19.9318C12.4385 20.1238 12.4385 20.1238 12.4385 19.7398C12.4385 18.5878 12.4385 17.3878 12.4385 16.2358C13.4065 16.7638 14.3261 17.3878 15.2941 17.9158C15.4877 18.0118 15.6813 18.2518 15.9717 18.2518V18.2998Z" fill="url(#paint6_linear_451_27)"/>
<path d="M151.524 10.2H158.916C160.676 10.2 162.02 10.584 162.948 11.352C163.892 12.12 164.364 13.232 164.364 14.688C164.364 15.488 164.124 16.208 163.644 16.848C163.164 17.488 162.468 17.928 161.556 18.168C162.548 18.36 163.348 18.824 163.956 19.56C164.564 20.28 164.868 21.224 164.868 22.392C164.868 23.816 164.364 24.944 163.356 25.776C162.364 26.592 161.004 27 159.276 27H151.524V10.2ZM158.844 16.968C159.484 16.968 159.996 16.784 160.38 16.416C160.78 16.032 160.98 15.528 160.98 14.904C160.98 14.28 160.78 13.784 160.38 13.416C159.996 13.032 159.484 12.84 158.844 12.84H154.908V16.968H158.844ZM158.556 24.36C159.548 24.36 160.284 24.168 160.764 23.784C161.244 23.384 161.484 22.784 161.484 21.984C161.484 21.184 161.244 20.592 160.764 20.208C160.284 19.808 159.548 19.608 158.556 19.608H154.908V24.36H158.556Z" fill="#3E3A3A"/>
<path d="M141.309 27.288C139.085 27.288 137.381 26.776 136.197 25.752C135.029 24.712 134.445 23.184 134.445 21.168V16.032C134.445 14.016 135.029 12.496 136.197 11.472C137.381 10.432 139.085 9.912 141.309 9.912C143.533 9.912 145.229 10.432 146.397 11.472C147.581 12.496 148.173 14.016 148.173 16.032V21.168C148.173 23.184 147.581 24.712 146.397 25.752C145.229 26.776 143.533 27.288 141.309 27.288ZM141.309 24.648C142.429 24.648 143.285 24.352 143.877 23.76C144.485 23.152 144.789 22.288 144.789 21.168V16.032C144.789 14.912 144.485 14.056 143.877 13.464C143.285 12.856 142.429 12.552 141.309 12.552C140.189 12.552 139.325 12.856 138.717 13.464C138.125 14.056 137.829 14.912 137.829 16.032V21.168C137.829 22.288 138.125 23.152 138.717 23.76C139.325 24.352 140.189 24.648 141.309 24.648Z" fill="#3E3A3A"/>
<path d="M125.311 27.288C124.047 27.288 123.047 27.104 122.311 26.736C121.591 26.352 120.879 25.76 120.175 24.96L122.167 22.92C122.647 23.56 123.103 24.008 123.535 24.264C123.983 24.52 124.543 24.648 125.215 24.648C126.239 24.648 127.007 24.424 127.519 23.976C128.047 23.512 128.311 22.84 128.311 21.96V10.2H131.695V21.96C131.695 23.72 131.151 25.048 130.063 25.944C128.991 26.84 127.407 27.288 125.311 27.288Z" fill="#3E3A3A"/>
<path d="M104.793 27.288C102.569 27.288 100.865 26.776 99.6814 25.752C98.5134 24.712 97.9294 23.184 97.9294 21.168V16.032C97.9294 14.016 98.5134 12.496 99.6814 11.472C100.865 10.432 102.569 9.912 104.793 9.912C107.017 9.912 108.713 10.432 109.881 11.472C111.065 12.496 111.657 14.016 111.657 16.032V21.168C111.657 23.184 111.065 24.712 109.881 25.752C108.713 26.776 107.017 27.288 104.793 27.288ZM104.793 24.648C105.913 24.648 106.769 24.352 107.361 23.76C107.969 23.152 108.273 22.288 108.273 21.168V16.032C108.273 14.912 107.969 14.056 107.361 13.464C106.769 12.856 105.913 12.552 104.793 12.552C103.673 12.552 102.809 12.856 102.201 13.464C101.609 14.056 101.313 14.912 101.313 16.032V21.168C101.313 22.288 101.609 23.152 102.201 23.76C102.809 24.352 103.673 24.648 104.793 24.648Z" fill="#3E3A3A"/>
<path d="M81.5869 10.2H87.8269C89.7149 10.2 91.2029 10.472 92.2909 11.016C93.3949 11.56 94.1869 12.44 94.6669 13.656C95.1629 14.856 95.4109 16.504 95.4109 18.6C95.4109 20.696 95.1629 22.352 94.6669 23.568C94.1869 24.768 93.3949 25.64 92.2909 26.184C91.2029 26.728 89.7149 27 87.8269 27H81.5869V10.2ZM87.8269 24.36C88.8829 24.36 89.7149 24.176 90.3229 23.808C90.9309 23.44 91.3629 22.84 91.6189 22.008C91.8909 21.176 92.0269 20.04 92.0269 18.6C92.0269 17.16 91.8909 16.024 91.6189 15.192C91.3629 14.36 90.9309 13.76 90.3229 13.392C89.7149 13.024 88.8829 12.84 87.8269 12.84H84.9709V24.36H87.8269Z" fill="#3E3A3A"/>
<path d="M74.5446 23.088H67.9686L66.8406 27H63.4566L67.5606 13.608C67.8486 12.648 68.1526 11.904 68.4726 11.376C68.7926 10.848 69.1686 10.472 69.6006 10.248C70.0486 10.024 70.6006 9.912 71.2566 9.912C71.9126 9.912 72.4566 10.024 72.8886 10.248C73.3206 10.472 73.6966 10.848 74.0166 11.376C74.3526 11.904 74.6646 12.648 74.9526 13.608L79.0566 27H75.6726L74.5446 23.088ZM73.8006 20.568L71.7846 13.656C71.6726 13.24 71.4966 13.032 71.2566 13.032C71.0166 13.032 70.8406 13.24 70.7286 13.656L68.7126 20.568H73.8006Z" fill="#3E3A3A"/>
<path d="M55.32 27.288C54.168 27.288 53.2 27.16 52.416 26.904C51.648 26.648 51 26.296 50.472 25.848C49.944 25.4 49.4 24.8 48.84 24.048L51.12 22.152C51.776 23.064 52.408 23.712 53.016 24.096C53.64 24.464 54.408 24.648 55.32 24.648C56.584 24.648 57.504 24.464 58.08 24.096C58.656 23.728 58.944 23.136 58.944 22.32C58.944 21.904 58.808 21.568 58.536 21.312C58.264 21.04 57.792 20.792 57.12 20.568C56.464 20.344 55.48 20.096 54.168 19.824C52.632 19.504 51.488 18.936 50.736 18.12C50 17.288 49.632 16.184 49.632 14.808C49.632 13.816 49.88 12.952 50.376 12.216C50.888 11.48 51.608 10.912 52.536 10.512C53.464 10.112 54.544 9.912 55.776 9.912C57.376 9.912 58.648 10.152 59.592 10.632C60.536 11.096 61.304 11.784 61.896 12.696L59.664 14.52C59.168 14.024 58.752 13.648 58.416 13.392C58.096 13.12 57.728 12.912 57.312 12.768C56.896 12.624 56.384 12.552 55.776 12.552C54.864 12.552 54.176 12.752 53.712 13.152C53.248 13.552 53.016 14.128 53.016 14.88C53.016 15.584 53.312 16.104 53.904 16.44C54.496 16.76 55.256 17.024 56.184 17.232C57.56 17.52 58.656 17.816 59.472 18.12C60.288 18.424 60.968 18.912 61.512 19.584C62.056 20.256 62.328 21.176 62.328 22.344C62.328 24.008 61.744 25.248 60.576 26.064C59.424 26.88 57.672 27.288 55.32 27.288Z" fill="#3E3A3A"/>
<path d="M180.824 28.104H177V24.36H180.824V28.104ZM180.679 9H177.145V22.872H180.679V9Z" fill="#3E3A3A"/>
<path d="M188.084 28.104H184.26V24.36H188.084V28.104ZM187.938 9H184.405V22.872H187.938V9Z" fill="#3E3A3A"/>
<defs>
<linearGradient id="paint0_linear_451_27" x1="-8.35217" y1="30.1409" x2="30.9842" y2="30.1409" gradientUnits="userSpaceOnUse">
<stop stop-color="#2AF598"/>
<stop offset="0.9987" stop-color="#08AEEA"/>
</linearGradient>
<linearGradient id="paint1_linear_451_27" x1="-8.35211" y1="6.23674" x2="30.9843" y2="6.23674" gradientUnits="userSpaceOnUse">
<stop stop-color="#2AF598"/>
<stop offset="0.9987" stop-color="#08AEEA"/>
</linearGradient>
<linearGradient id="paint2_linear_451_27" x1="-8.35193" y1="18.1752" x2="30.9845" y2="18.1752" gradientUnits="userSpaceOnUse">
<stop stop-color="#2AF598"/>
<stop offset="0.9987" stop-color="#08AEEA"/>
</linearGradient>
<linearGradient id="paint3_linear_451_27" x1="-8.35205" y1="18.1782" x2="30.9844" y2="18.1782" gradientUnits="userSpaceOnUse">
<stop stop-color="#2AF598"/>
<stop offset="0.9987" stop-color="#08AEEA"/>
</linearGradient>
<linearGradient id="paint4_linear_451_27" x1="-8.35238" y1="16.2928" x2="30.984" y2="16.2928" gradientUnits="userSpaceOnUse">
<stop stop-color="#2AF598"/>
<stop offset="0.9987" stop-color="#08AEEA"/>
</linearGradient>
<linearGradient id="paint5_linear_451_27" x1="-8.35237" y1="19.1562" x2="30.984" y2="19.1562" gradientUnits="userSpaceOnUse">
<stop stop-color="#2AF598"/>
<stop offset="0.9987" stop-color="#08AEEA"/>
</linearGradient>
<linearGradient id="paint6_linear_451_27" x1="-8.35237" y1="18.1526" x2="30.984" y2="18.1526" gradientUnits="userSpaceOnUse">
<stop stop-color="#2AF598"/>
<stop offset="0.9987" stop-color="#08AEEA"/>
</linearGradient>
</defs>
</svg>
