<?xml version="1.0" encoding="utf-8"?>
<!-- Generator: Adobe Illustrator 25.4.1, SVG Export Plug-In . SVG Version: 6.00 Build 0)  -->
<svg version="1.1" id="レイヤー_1" xmlns="http://www.w3.org/2000/svg" xmlns:xlink="http://www.w3.org/1999/xlink" x="0px"
	 y="0px" viewBox="0 0 500 500" style="enable-background:new 0 0 500 500;" xml:space="preserve">
<style type="text/css">
	.st0{fill:url(#SVGID_1_);}
	.st1{fill:url(#SVGID_00000035520895643732804620000013177149863148424344_);}
	.st2{fill:url(#SVGID_00000016793907789931510690000008305288637576045498_);}
	.st3{fill:url(#SVGID_00000054954498853091646590000012140860247778344335_);}
	.st4{fill:url(#SVGID_00000090981292946713343340000012045459473072720822_);}
	.st5{fill:url(#SVGID_00000093885668261346938310000007810712577816197011_);}
	.st6{fill:url(#SVGID_00000097485071443494771670000010646573827685749652_);}
	.st7{fill:#595757;}
</style>
<linearGradient id="SVGID_1_" gradientUnits="userSpaceOnUse" x1="48.7451" y1="311.9649" x2="374.6038" y2="311.9649">
	<stop  offset="0" style="stop-color:#2AF598"/>
	<stop  offset="0.9987" style="stop-color:#08AEEA"/>
</linearGradient>
<path class="st0" d="M381.7,288c-6.4,4.4-13.3,8-20.1,11.9c-36.5,21.1-73.1,42.2-109.6,63.3c-1.3,0.8-2.3,1.1-3.8,0.2
	c-43.1-24.9-86.3-49.8-129.4-74.7c-0.2-0.1-0.4-0.4-0.6-0.6c0.4-1.2,1.4-1.6,2.4-2.1c14.3-8.4,28.8-16.5,43.1-24.9
	c0.8-0.5,1.6-0.8,2.5-0.8c3.7,1,6.7,3.3,9.9,5.2c23,13.4,46.2,26.4,69,40c3.5,2.1,6.1,2,9.7-0.1c24.9-14.6,50-28.9,75-43.3
	c1.1-0.6,2.1-1.5,3.3-2c4.3,1.6,8.1,4.1,12,6.4c10.8,6.2,21.7,12.3,32.4,18.5C379,285.7,380.8,286.3,381.7,288z"/>
<linearGradient id="SVGID_00000097478913028385837450000010977774238574359448_" gradientUnits="userSpaceOnUse" x1="48.7451" y1="112.2945" x2="374.6038" y2="112.2945">
	<stop  offset="0" style="stop-color:#2AF598"/>
	<stop  offset="0.9987" style="stop-color:#08AEEA"/>
</linearGradient>
<path style="fill:url(#SVGID_00000097478913028385837450000010977774238574359448_);" d="M118.3,136c11.8-6.9,23.7-13.9,35.5-20.7
	c31.1-18,62.3-36,93.4-54c1.8-1,3.1-1.3,5.1-0.2c42.8,24.8,85.5,49.4,128.3,74.1c0.3,0.2,0.6,0.5,0.9,0.7c0,1.1-0.9,1.4-1.7,1.9
	c-14.7,8.6-29.4,17.2-44.2,25.7c-0.6,0.3-1.2,0.7-1.9,0.7c-9.4-4.9-18.4-10.5-27.6-15.7c-18-10.3-36-20.7-53.9-31.2
	c-1.7-1-3-0.9-4.7,0.1c-26,15.1-52.1,30.1-78.1,45.1c-1,0.6-2,1.2-3.2,1.4c-2.4,0-4.2-1.7-6.1-2.8c-12.8-7.5-25.8-14.7-38.5-22.3
	C120.4,138.1,118.8,137.7,118.3,136z"/>
<linearGradient id="SVGID_00000120549077570801097960000007551005652666336943_" gradientUnits="userSpaceOnUse" x1="48.7451" y1="212.0163" x2="374.6038" y2="212.0163">
	<stop  offset="0" style="stop-color:#2AF598"/>
	<stop  offset="0.9987" style="stop-color:#08AEEA"/>
</linearGradient>
<path style="fill:url(#SVGID_00000120549077570801097960000007551005652666336943_);" d="M333.9,163.7c15.9-9.2,31.8-18.5,47.7-27.7
	c0.5,0.9,0.3,1.9,0.3,2.9c0,17.6,0,35.2,0.1,52.9c0,2.1-0.7,3.2-2.4,4.2c-9.7,5.5-19.3,11.2-29.2,17c9.9,5.6,19.4,11.1,29,16.5
	c1.9,1,2.6,2.1,2.6,4.3c-0.1,17.1-0.1,34.2-0.1,51.4c0,1-0.1,2-0.2,3c-16.2-9.2-32.4-18.4-48.6-27.7c-1.3,0.5-2.3-0.5-3.3-1
	c-13.7-7.8-27.3-15.6-41-23.5c-6.9-4-13.8-7.9-20.8-11.9c-2.3-1.3-18.7-9-17.9-11.4c0.4-1.2,1.5-1.8,2.5-2.4
	c8.5-4.9,17-9.9,25.5-14.9c9.2-5.2,18.2-10.7,27.4-15.9c8.6-4.9,17-10,25.6-14.9C332,164.1,332.8,163.6,333.9,163.7z"/>
<linearGradient id="SVGID_00000017477023257205660480000018030281980630778765_" gradientUnits="userSpaceOnUse" x1="48.7451" y1="212.0406" x2="374.6038" y2="212.0406">
	<stop  offset="0" style="stop-color:#2AF598"/>
	<stop  offset="0.9987" style="stop-color:#08AEEA"/>
</linearGradient>
<path style="fill:url(#SVGID_00000017477023257205660480000018030281980630778765_);" d="M118.3,136c15.9,9.2,31.9,18.4,47.8,27.5
	c1.2,1.1,1,2.5,1.1,3.9c0,29.8,0,59.6,0,89.4c0,1.4,0.1,2.8-1,3.9c-7.7,3.8-14.9,8.5-22.3,12.6c-8.6,4.8-17.1,9.8-25.6,14.7
	c-0.1-1-0.2-2-0.2-2.9c0-48.7,0-97.5,0-146.2C118.1,138,118.2,137,118.3,136z"/>
<linearGradient id="SVGID_00000007414769543770838170000009511799528966657951_" gradientUnits="userSpaceOnUse" x1="48.7451" y1="196.293" x2="374.6038" y2="196.293">
	<stop  offset="0" style="stop-color:#2AF598"/>
	<stop  offset="0.9987" style="stop-color:#08AEEA"/>
</linearGradient>
<path style="fill:url(#SVGID_00000007414769543770838170000009511799528966657951_);" d="M220.9,195.6c9-5.2,18.1-10.5,27.1-15.7
	c0.9-0.5,1.5-0.9,2.7-0.3c9,5.3,18.1,10.5,27.1,15.7c0.2,0.1,0.4,0.5,0.5,0.7c-8.9,5.2-17.9,10.5-26.8,15.7c-0.5,0.3-0.9,0.7-1.4,1
	c-0.8,0.9-1.6,0.5-2.4,0.1c-8.8-5.1-17.4-10.4-25.9-15.9c-0.3-0.2-0.6-0.6-0.7-0.9C221,195.9,220.9,195.7,220.9,195.6z"/>
<linearGradient id="SVGID_00000162335645273321237810000006336349601028354181_" gradientUnits="userSpaceOnUse" x1="48.7451" y1="220.2104" x2="374.6038" y2="220.2104">
	<stop  offset="0" style="stop-color:#2AF598"/>
	<stop  offset="0.9987" style="stop-color:#08AEEA"/>
</linearGradient>
<path style="fill:url(#SVGID_00000162335645273321237810000006336349601028354181_);" d="M278.4,229.2c-0.4,0.7-2.2,1.2-2.7,1.5
	c-1.4,0.7-2.8,1.5-4.2,2.3c-2.7,1.5-5.3,3.2-7.9,4.6c-4,2.2-7.9,4.5-11.8,6.9c-1.3,0.8-2.3,0.7-3.5-0.1c-8.5-5-17.1-9.9-25.7-14.9
	c-0.9-0.5-1.6-1-1.6-2.2c0-10.4,0-20.8,0.1-31.2c0-0.3,0.3-0.5,0.4-0.8c0.1,0.1,0.1,0.3,0,0.4c1.2,1.1,0.9,2.5,0.9,3.9
	c0,8,0,16,0,23.9c0,3.2,0.4,3.4,3.1,1.8c6.4-3.7,12.9-7.2,19.4-10.7c1.9-1,3.8-2.4,6-1.3c2.6,1.2,5.1,2.8,7.6,4.2
	c5.2,2.8,10.3,5.6,15.5,8.5c1.2,0.6,2.4,1.3,3.6,1.9c0.3,0.2,0.6,0.3,0.8,0.6C278.5,228.8,278.5,229,278.4,229.2z"/>
<linearGradient id="SVGID_00000065786918450903717260000014274471347667082662_" gradientUnits="userSpaceOnUse" x1="48.7451" y1="211.8289" x2="374.6038" y2="211.8289">
	<stop  offset="0" style="stop-color:#2AF598"/>
	<stop  offset="0.9987" style="stop-color:#08AEEA"/>
</linearGradient>
<path style="fill:url(#SVGID_00000065786918450903717260000014274471347667082662_);" d="M250.3,213.2c-1.3-0.3-2.3,0.5-3.3,1
	c-7.6,4.2-15.2,8.4-22.8,12.6c-3.1,1.7-3.1,1.7-3.1-1.7c0-9.8,0-19.6,0-29.3c8.1,4.4,15.8,9.6,23.7,14.2c1.7,1,3.2,2.7,5.5,2.6
	C250.3,212.8,250.3,212.9,250.3,213.2z"/>
<g>
	<path class="st7" d="M91.6,411c-1.7-2.7-3.8-4-7.9-4c-3.6,0-5.6,1.7-5.6,4.4c0,3.1,2.5,4.5,7.9,5.8c8.3,2.1,12.1,5.2,12.1,12.2
		c0,6.5-4.4,11.6-13.7,11.6c-7,0-11.8-1.9-15.4-6.5l6.2-4.3c2.1,2.7,4.6,4,8.7,4c4.6,0,6.2-2,6.2-4.4c0-2.8-1.7-4.3-8.1-6
		c-7.9-2.1-11.8-5.8-11.8-12.4c0-6.3,4.2-11.2,13.6-11.2c6.4,0,11.1,2.1,14,6.5L91.6,411z"/>
	<path class="st7" d="M112.7,416.5h13.8v-15.8h8.1v39.8h-8.1v-17.2h-13.8v17.2h-8.1v-39.8h8.1V416.5z"/>
	<path class="st7" d="M151.8,440.5h-8.1v-39.8h8.1V440.5z"/>
	<path class="st7" d="M190.7,400.7v39.8H184l-15.5-24.7v24.7h-7.7v-39.8h6.7l15.6,25v-25H190.7z"/>
	<path class="st7" d="M199.2,440.5v-39.8h14.1c9,0,15.3,4.6,15.3,17.3v5.2c0,12.6-6.3,17.3-15.3,17.3H199.2z M220.6,423.2V418
		c0-6.9-1.8-10.5-7.2-10.5h-6.1v26.2h6.1C218.7,433.7,220.6,430.1,220.6,423.2z"/>
	<path class="st7" d="M230.5,440.5l13.9-39.8h7.7l13.9,39.8h-8.6l-2.4-7.6h-13.3l-2.4,7.6H230.5z M243.8,426.1h9l-4.5-14
		L243.8,426.1z"/>
	<path class="st7" d="M279,440.5h-8.1v-39.8h8.1V440.5z"/>
	<path class="st7" d="M316.3,400.7c9.4,0,14.6,3.3,14.6,10.5c0,4.1-2.1,6.9-5.3,8.5c4.1,1.5,6.5,4.5,6.5,9.5c0,6.2-4,11.4-14.6,11.4
		H303v-39.8H316.3z M311.1,416.4h5.4c4.4,0,6.4-1.7,6.4-4.6c0-2.8-1.4-4.4-7.2-4.4h-4.5V416.4z M311.1,433.7h5.8
		c4.9,0,7.2-1.8,7.2-5.3c0-3.8-2.5-5.2-7.9-5.2h-5.1V433.7z"/>
	<path class="st7" d="M352.6,441c-9,0-15.2-5.4-15.2-17.6v-5.7c0-12.3,6.3-17.6,15.2-17.6c9,0,15.3,5.3,15.3,17.6v5.7
		C367.9,435.6,361.6,441,352.6,441z M345.4,423.4c0,7.6,2.5,10.8,7.2,10.8c4.7,0,7.2-3.2,7.2-10.8v-5.7c0-7.6-2.5-10.8-7.2-10.8
		c-4.7,0-7.2,3.2-7.2,10.8V423.4z"/>
	<path class="st7" d="M370.9,440.5l11.2-20.6l-10-19.3h8.8l6.4,12.7l6.4-12.7h8.7l-10,19.3l11.3,20.6h-8.7l-7.6-13.6l-7.6,13.6
		H370.9z"/>
	<path class="st7" d="M416,440.5h-7.9v-7.9h7.9V440.5z M415.7,400.7h-7.3v28.9h7.3V400.7z"/>
	<path class="st7" d="M431,440.5h-7.9v-7.9h7.9V440.5z M430.7,400.7h-7.3v28.9h7.3V400.7z"/>
</g>
</svg>
