<svg width="242" height="72" viewBox="0 0 242 72" fill="none" xmlns="http://www.w3.org/2000/svg">
<path d="M46.706 43.4399C45.9316 43.9679 45.1088 44.3999 44.286 44.8799C39.8816 47.4239 35.4772 49.9199 31.0728 52.4639C30.9276 52.5599 30.7824 52.6079 30.6372 52.4639C25.41 49.4879 20.2312 46.5119 15.004 43.5359C14.9556 43.5359 14.9556 43.4879 14.9556 43.4399C15.004 43.2959 15.1492 43.2479 15.246 43.1999C16.9884 42.1919 18.7308 41.2319 20.4248 40.2239C20.5216 40.1759 20.6184 40.1279 20.7152 40.1279C21.1508 40.2719 21.538 40.5119 21.9252 40.7519C24.684 42.3359 27.4912 43.9199 30.25 45.5519C30.6856 45.7919 30.976 45.7919 31.4116 45.5519C34.4124 43.7759 37.4616 42.0959 40.4624 40.3679C40.6076 40.2719 40.7044 40.1759 40.8496 40.1279C41.382 40.3199 41.8176 40.6079 42.3016 40.8959C43.6084 41.6159 44.9152 42.3839 46.222 43.1039C46.3672 43.1519 46.6092 43.2479 46.706 43.4399Z" fill="url(#paint0_linear_419_132)"/>
<path d="M14.9072 25.2481C16.3592 24.4321 17.7628 23.5681 19.2148 22.7521C22.99 20.5921 26.7168 18.4321 30.492 16.2721C30.6856 16.1281 30.8792 16.1281 31.1212 16.2721C36.3 19.2481 41.4304 22.1761 46.6092 25.1521C46.6576 25.1521 46.6576 25.2001 46.706 25.2481C46.706 25.3921 46.6092 25.4401 46.5124 25.4881C44.7216 26.4961 42.9792 27.5521 41.1884 28.5601C41.14 28.6081 41.0432 28.6561 40.9464 28.6561C39.8332 28.0801 38.72 27.4081 37.6068 26.7841C35.4288 25.5361 33.2508 24.2881 31.0728 23.0401C30.8792 22.9441 30.6856 22.9441 30.492 23.0401C27.346 24.8641 24.2 26.6401 21.054 28.4641C20.9088 28.5121 20.812 28.6081 20.6668 28.6561C20.3764 28.6561 20.1828 28.4641 19.9408 28.3201C18.392 27.4081 16.8432 26.5441 15.2944 25.6321C15.1492 25.4881 14.9556 25.4401 14.9072 25.2481Z" fill="url(#paint1_linear_419_132)"/>
<path d="M40.9466 28.56C42.8826 27.456 44.7702 26.352 46.7062 25.248C46.7546 25.344 46.7546 25.488 46.7546 25.584C46.7546 27.696 46.7546 29.808 46.7546 31.92C46.7546 32.16 46.6578 32.304 46.4642 32.4C45.3026 33.072 44.141 33.744 42.931 34.416C44.141 35.088 45.2542 35.76 46.4158 36.384C46.6578 36.528 46.7546 36.624 46.7546 36.912C46.7546 38.976 46.7546 40.992 46.7546 43.056C46.7546 43.152 46.7546 43.296 46.7546 43.392C44.8186 42.288 42.8342 41.184 40.8982 40.08C40.753 40.128 40.6078 40.032 40.511 39.936C38.8654 39.024 37.2198 38.064 35.5742 37.104C34.7514 36.624 33.8802 36.144 33.0574 35.664C32.767 35.52 30.7826 34.56 30.8794 34.32C30.9278 34.176 31.073 34.128 31.1698 34.032C32.1862 33.456 33.2026 32.832 34.219 32.256C35.3322 31.632 36.397 30.96 37.5102 30.336C38.5266 29.76 39.543 29.136 40.6078 28.56C40.7046 28.608 40.8014 28.56 40.9466 28.56Z" fill="url(#paint2_linear_419_132)"/>
<path d="M14.9073 25.248C16.8433 26.352 18.7309 27.456 20.6669 28.56C20.8121 28.704 20.8121 28.848 20.8121 29.04C20.8121 32.592 20.8121 36.192 20.8121 39.744C20.8121 39.888 20.8121 40.08 20.6669 40.224C19.7473 40.656 18.8761 41.232 17.9565 41.76C16.9401 42.336 15.8753 42.912 14.8589 43.536C14.8589 43.44 14.8589 43.296 14.8589 43.2C14.8589 37.344 14.8589 31.536 14.8589 25.68C14.8589 25.488 14.9073 25.344 14.9073 25.248Z" fill="url(#paint3_linear_419_132)"/>
<path d="M27.2974 32.352C28.4106 31.728 29.4754 31.104 30.5886 30.48C30.6854 30.432 30.7822 30.384 30.9274 30.432C31.9922 31.056 33.1054 31.68 34.2186 32.304C34.267 32.304 34.267 32.352 34.267 32.4C33.2022 33.024 32.089 33.648 31.0242 34.272C30.9758 34.32 30.9274 34.368 30.8306 34.416C30.7338 34.512 30.637 34.464 30.5402 34.416C29.4754 33.792 28.459 33.168 27.3942 32.496C27.3458 32.448 27.3458 32.448 27.2974 32.4C27.2974 32.4 27.2974 32.4 27.2974 32.352Z" fill="url(#paint4_linear_419_132)"/>
<path d="M34.2186 36.3841C34.1702 36.4801 33.9766 36.528 33.8798 36.576C33.6862 36.672 33.541 36.7681 33.3958 36.8641C33.057 37.0561 32.7666 37.248 32.4278 37.44C31.9438 37.68 31.4598 37.968 31.0242 38.256C30.879 38.352 30.7338 38.352 30.5886 38.256C29.5722 37.68 28.5074 37.056 27.491 36.48C27.3942 36.432 27.2974 36.3361 27.2974 36.1921C27.2974 34.9441 27.2974 33.696 27.2974 32.448C27.2974 32.4 27.3458 32.4001 27.3458 32.3521V32.4001C27.491 32.5441 27.4426 32.6881 27.4426 32.8801C27.4426 33.8401 27.4426 34.8 27.4426 35.76C27.4426 36.144 27.491 36.1441 27.8298 35.9521C28.6042 35.5201 29.3786 35.088 30.153 34.656C30.395 34.512 30.5886 34.3681 30.879 34.5121C31.1694 34.6561 31.5082 34.8481 31.7986 34.9921C32.4278 35.3281 33.057 35.664 33.6862 36C33.8314 36.096 33.9766 36.144 34.1218 36.24C34.1702 36.24 34.2186 36.288 34.2186 36.336C34.267 36.336 34.267 36.3841 34.2186 36.3841Z" fill="url(#paint5_linear_419_132)"/>
<path d="M30.8306 34.4639C30.6854 34.4159 30.5402 34.5119 30.4434 34.6079C29.5238 35.0879 28.6042 35.6159 27.6846 36.0959C27.2974 36.2879 27.2974 36.2879 27.2974 35.9039C27.2974 34.7519 27.2974 33.5519 27.2974 32.3999C28.2654 32.9279 29.185 33.5519 30.153 34.0799C30.3466 34.1759 30.5402 34.4159 30.8306 34.4159V34.4639Z" fill="url(#paint6_linear_419_132)"/>
<path d="M67.2758 29.424C66.453 28.128 65.4366 27.504 63.4522 27.504C61.7098 27.504 60.7418 28.32 60.7418 29.616C60.7418 31.104 61.9518 31.776 64.5654 32.4C68.5826 33.408 70.4218 34.896 70.4218 38.256C70.4218 41.376 68.2922 43.824 63.791 43.824C60.403 43.824 58.0798 42.912 56.3374 40.704L59.3382 38.64C60.3546 39.936 61.5646 40.56 63.549 40.56C65.7754 40.56 66.5498 39.6 66.5498 38.448C66.5498 37.104 65.727 36.384 62.6294 35.568C58.8058 34.56 56.9182 32.784 56.9182 29.616C56.9182 26.592 58.951 24.24 63.5006 24.24C66.5982 24.24 68.873 25.248 70.2766 27.36L67.2758 29.424Z" fill="white"/>
<path d="M77.5366 32.064H84.2158V24.48H88.1362V43.584H84.2158V35.328H77.5366V43.584H73.6162V24.48H77.5366V32.064Z" fill="white"/>
<path d="M96.4126 43.584H92.4922V24.48H96.4126V43.584Z" fill="white"/>
<path d="M115.289 24.48V43.584H111.997L104.495 31.728V43.584H100.769V24.48H104.011L111.562 36.48V24.48H115.289Z" fill="white"/>
<path d="M119.354 43.584V24.48H126.178C130.534 24.48 133.584 26.688 133.584 32.784V35.28C133.584 41.328 130.534 43.584 126.178 43.584H119.354ZM129.712 35.28V32.784C129.712 29.472 128.84 27.744 126.227 27.744H123.274V40.32H126.227C128.84 40.32 129.712 38.592 129.712 35.28Z" fill="white"/>
<path d="M134.552 43.584L141.231 24.48H144.958L151.685 43.584H147.523L146.361 39.936H139.924L138.763 43.584H134.552ZM140.941 36.672H145.297L143.119 29.952L140.941 36.672Z" fill="white"/>
<path d="M157.978 43.584H154.057V24.48H157.978V43.584Z" fill="white"/>
<path d="M176.079 24.48C180.628 24.48 183.145 26.064 183.145 29.52C183.145 31.488 182.129 32.832 180.58 33.6C182.564 34.32 183.726 35.76 183.726 38.16C183.726 41.136 181.79 43.632 176.66 43.632H169.593V24.48H176.079ZM173.514 32.016H176.127C178.257 32.016 179.225 31.2 179.225 29.808C179.225 28.464 178.547 27.696 175.74 27.696H173.562V32.016H173.514ZM173.514 40.32H176.321C178.692 40.32 179.806 39.456 179.806 37.776C179.806 35.952 178.596 35.28 175.982 35.28H173.514V40.32Z" fill="white"/>
<path d="M193.6 43.8239C189.244 43.8239 186.243 41.2319 186.243 35.3759V32.6399C186.243 26.7359 189.292 24.1919 193.6 24.1919C197.956 24.1919 201.005 26.7359 201.005 32.6399V35.3759C201.005 41.2319 197.956 43.8239 193.6 43.8239ZM190.164 35.3759C190.164 39.0239 191.374 40.5599 193.648 40.5599C195.923 40.5599 197.133 39.0239 197.133 35.3759V32.6399C197.133 28.9919 195.923 27.4559 193.648 27.4559C191.374 27.4559 190.164 28.9919 190.164 32.6399V35.3759Z" fill="white"/>
<path d="M202.457 43.5839L207.878 33.6959L203.038 24.4319H207.297L210.395 30.5279L213.492 24.4319H217.703L212.863 33.6959L218.284 43.5839H214.073L210.395 37.0559L206.716 43.5839H202.457Z" fill="white"/>
<path d="M224.334 43.584H220.51V39.84H224.334V43.584ZM224.189 24.48H220.655V38.352H224.189V24.48Z" fill="white"/>
<path d="M231.594 43.584H227.77V39.84H231.594V43.584ZM231.448 24.48H227.915V38.352H231.448V24.48Z" fill="white"/>
<defs>
<linearGradient id="paint0_linear_419_132" x1="6.50672" y1="46.305" x2="45.8431" y2="46.305" gradientUnits="userSpaceOnUse">
<stop stop-color="#2AF598"/>
<stop offset="0.9987" stop-color="#08AEEA"/>
</linearGradient>
<linearGradient id="paint1_linear_419_132" x1="6.50678" y1="22.4008" x2="45.8432" y2="22.4008" gradientUnits="userSpaceOnUse">
<stop stop-color="#2AF598"/>
<stop offset="0.9987" stop-color="#08AEEA"/>
</linearGradient>
<linearGradient id="paint2_linear_419_132" x1="6.50696" y1="34.3393" x2="45.8434" y2="34.3393" gradientUnits="userSpaceOnUse">
<stop stop-color="#2AF598"/>
<stop offset="0.9987" stop-color="#08AEEA"/>
</linearGradient>
<linearGradient id="paint3_linear_419_132" x1="6.50684" y1="34.3423" x2="45.8433" y2="34.3423" gradientUnits="userSpaceOnUse">
<stop stop-color="#2AF598"/>
<stop offset="0.9987" stop-color="#08AEEA"/>
</linearGradient>
<linearGradient id="paint4_linear_419_132" x1="6.50651" y1="32.4569" x2="45.8429" y2="32.4569" gradientUnits="userSpaceOnUse">
<stop stop-color="#2AF598"/>
<stop offset="0.9987" stop-color="#08AEEA"/>
</linearGradient>
<linearGradient id="paint5_linear_419_132" x1="6.50652" y1="35.3203" x2="45.8429" y2="35.3203" gradientUnits="userSpaceOnUse">
<stop stop-color="#2AF598"/>
<stop offset="0.9987" stop-color="#08AEEA"/>
</linearGradient>
<linearGradient id="paint6_linear_419_132" x1="6.50652" y1="34.3167" x2="45.8429" y2="34.3167" gradientUnits="userSpaceOnUse">
<stop stop-color="#2AF598"/>
<stop offset="0.9987" stop-color="#08AEEA"/>
</linearGradient>
</defs>
</svg>
